<?xml version="1.0" encoding="UTF-8"?>
<svg width="872px" height="341px" viewBox="0 0 872 341" version="1.1" xmlns="http://www.w3.org/2000/svg" xmlns:xlink="http://www.w3.org/1999/xlink">
    <!-- Generator: Sketch 63 (92445) - https://sketch.com -->
    <title>Group 17</title>
    <desc>Created with Sketch.</desc>
    <g id="Login/inicio/menu" stroke="none" stroke-width="1" fill="none" fill-rule="evenodd">
        <g id="Group-17" transform="translate(0.000000, 0.290000)">
            <path d="M0.0654,244.921 C1.5274,239.176 2.3954,233.196 4.5574,227.729 C12.4274,207.834 27.5004,196.516 48.3114,192.681 C62.3684,190.09 76.1464,191.149 89.2214,197.261 C96.1694,200.508 101.8104,205.358 105.0014,212.584 C108.5744,220.68 106.3514,228.581 98.8004,233.174 C95.7874,235.007 92.2744,236.057 88.9244,237.287 C87.2244,237.912 85.8544,237.333 84.7954,235.634 C78.5494,225.609 67.8094,222.66 56.8044,224.979 C45.7644,227.306 39.6574,234.805 37.5804,245.718 C34.9024,259.79 41.2484,272.758 53.1514,277.54 C64.4304,282.071 79.5544,278.538 85.4224,267.255 C85.8544,266.425 87.0094,265.516 87.8914,265.447 C95.7084,264.839 106.1034,273.216 107.0474,280.889 C107.8314,287.247 105.2374,292.569 101.2284,297.211 C94.1694,305.385 84.7704,309.297 74.4054,310.967 C60.4724,313.212 46.7254,312.515 33.6864,306.571 C14.5464,297.848 4.1484,282.529 0.7884,262.069 C0.5904,260.863 0.3084,259.67 0.0654,258.471 L0.0654,244.921 Z" id="Fill-3" fill="#FFFFFF"></path>
            <path d="M543.3788,251.3223 C543.3778,231.1003 543.2888,210.8783 543.4578,190.6573 C543.4878,186.9223 544.1478,183.0723 545.2228,179.4863 C548.3928,168.9143 556.6358,162.6233 567.6398,161.9093 C568.8668,161.827569 570.1018,161.8313 571.3328,161.8313 C603.0518,161.827569 634.7708,161.8223 666.4878,161.8413 C668.5368,161.8423 670.6168,161.8323 672.6278,162.1623 C685.2088,164.2233 691.6918,171.8333 691.6538,184.6163 C691.6448,187.9803 691.5098,191.4383 690.7368,194.6883 C688.7558,203.0303 682.2458,208.0403 672.4748,209.0713 C668.9108,209.4473 665.3138,209.6483 661.7308,209.6583 C642.0228,209.7143 622.3138,209.7423 602.6058,209.6253 C599.5658,209.6073 598.3208,210.3923 598.5528,213.5883 C598.8038,217.0603 598.7608,220.5733 598.5618,224.0513 C598.4028,226.8153 599.5068,227.5723 602.1288,227.5543 C615.6778,227.4623 629.2318,227.3463 642.7758,227.6053 C647.5348,227.6963 652.4218,228.3063 656.9888,229.6023 C664.2518,231.6623 668.0918,237.1583 668.8298,244.5343 C669.2048,248.2783 669.2168,252.1833 668.5858,255.8783 C666.8908,265.8083 658.9658,271.8053 647.5348,271.9283 C633.1658,272.0833 618.7938,271.9743 604.4228,272.0163 C597.9768,272.0363 598.6578,271.3273 598.6128,277.7463 C598.5868,281.5443 598.7738,285.3513 598.5568,289.1363 C598.3868,292.0963 599.4098,293.0073 602.3818,292.9923 C624.1428,292.8853 645.9038,292.8833 667.6658,292.9883 C671.1178,293.0063 674.6328,293.4373 678.0068,294.1833 C686.4828,296.0593 691.4698,301.5843 692.4648,310.0983 C692.9818,314.5103 692.8748,319.2003 691.9588,323.5333 C689.7208,334.1243 681.8398,340.1993 670.2418,340.2513 C636.4708,340.4003 602.6978,340.4683 568.9278,340.2283 C553.5418,340.1193 543.4798,329.0633 543.4028,312.9113 C543.3068,292.3823 543.3798,271.8523 543.3788,251.3223" id="Fill-5" fill="#FFFFFF"></path>
            <path d="M468.9628,335.438502 C447.7948,335.3165 428.4118,329.8725 411.9418,316.0195 C398.7738,304.9435 390.4038,290.7885 386.4858,274.1465 C381.8838,254.5975 382.5138,235.1595 390.2278,216.4465 C400.7248,190.9795 419.8718,175.3895 446.6008,169.2465 C465.4048,164.9235 484.1008,165.6485 502.3538,172.1935 C511.9938,175.6505 520.4008,181.0965 526.4298,189.5955 C538.0308,205.9495 532.5628,222.6555 513.5708,229.1605 C512.6018,229.4925 511.6218,229.7925 510.6448,230.1035 C504.8028,231.9595 504.4828,231.7975 500.9348,226.7835 C494.0478,217.0525 484.3098,212.7075 472.6828,212.5055 C460.1268,212.2885 449.5868,216.6485 442.1668,227.2305 C430.1268,244.4055 434.2458,271.5605 450.6298,283.1835 C462.7218,291.7615 481.1178,291.9035 493.2898,283.4915 C497.4238,280.6345 500.6868,276.9765 502.8108,272.4185 C503.8078,270.2785 505.1178,269.7095 507.4338,270.1305 C514.2498,271.3755 520.3988,274.0145 525.6938,278.4665 C534.1848,285.6055 535.7358,296.8905 529.6248,307.8395 C522.9468,319.8055 512.2058,326.6255 499.5758,330.8615 C489.6558,334.1875 479.4038,335.4405 468.9628,335.438502" id="Fill-7" fill="#FFFFFF"></path>
            <path d="M253.9286,252.5215 C253.9276,237.3335 253.8796,222.1475 253.9516,206.9605 C253.9796,201.0695 254.6236,195.2435 258.0486,190.1725 C262.0746,184.2125 268.0586,181.6815 274.9386,181.6465 C301.2066,181.5085 327.4766,181.4875 353.7446,181.6345 C366.4626,181.7065 373.4256,189.6265 372.4496,202.2925 C371.5936,213.4115 366.4186,218.7935 355.2516,219.0005 C337.8146,219.3205 320.3666,219.1485 302.9236,219.1845 C298.1146,219.1945 298.1146,219.1925 298.1116,224.0955 C298.1106,226.2505 298.2396,228.4145 298.0796,230.5575 C297.8986,233.0125 298.9306,233.7675 301.2886,233.7505 C312.2676,233.6745 323.2476,233.7075 334.2276,233.7275 C339.0786,233.7375 343.9656,233.8665 348.0856,236.8705 C349.6986,238.0455 351.2676,239.5455 352.2786,241.2435 C359.5706,253.4865 351.7026,268.3345 337.5586,268.7385 C325.7676,269.0755 313.9606,268.8615 302.1596,268.8975 C298.1306,268.9105 298.1256,268.9185 298.1136,273.0435 C298.1046,276.0195 298.2686,279.0055 298.0666,281.9675 C297.8796,284.7005 298.9196,285.5105 301.5836,285.4945 C316.5656,285.3985 331.5476,285.3345 346.5276,285.5095 C352.0206,285.5745 357.6026,285.8305 362.9686,286.8885 C368.9276,288.0635 372.1096,292.6365 372.9786,298.4535 C373.4566,301.6535 373.4746,305.0655 372.9266,308.2495 C371.2436,318.0365 364.6156,322.8865 352.9736,322.9885 C339.7376,323.1055 326.4986,323.0205 313.2616,323.0215 C301.6666,323.0225 290.0716,323.0265 278.4766,323.0145 C277.1446,323.0125 275.8006,323.0125 274.4826,322.8505 C260.2996,321.1095 254.0686,313.8795 253.9546,298.6975 C253.8396,283.3055 253.9296,267.9135 253.9286,252.5215" id="Fill-9" fill="#FFFFFF"></path>
            <path d="M163.0976,231.6485 C163.0976,235.7525 163.0886,239.8575 163.1026,243.9615 C163.1076,245.3265 163.0836,246.8315 165.0546,246.7525 C172.4156,246.4595 179.8016,246.3865 187.1236,245.6755 C191.2916,245.2715 194.6656,242.6655 196.2606,238.6835 C199.5006,230.5985 198.0126,218.3625 184.3296,217.1615 C178.3186,216.6325 172.2416,216.8715 166.1986,216.6435 C163.7246,216.5505 162.9836,217.6265 163.0586,219.9515 C163.1836,223.8465 163.0926,227.7495 163.0976,231.6485 M210.2356,266.7775 C214.5986,272.1935 218.8846,277.5305 223.1886,282.8515 C227.8956,288.6725 232.5206,294.5655 237.3866,300.2505 C239.2606,302.4395 239.0526,304.2045 237.5076,306.2515 C233.2276,311.9215 227.3226,314.6815 220.4766,315.6605 C208.7766,317.3335 199.6236,312.9895 192.6066,303.6945 C185.9936,294.9355 179.3666,286.1865 172.7346,277.4415 C171.1056,275.2935 167.0726,274.0495 164.8956,275.3065 C164.1976,275.7105 163.7916,277.1475 163.7746,278.1205 C163.6726,284.0695 163.7366,290.0205 163.7086,295.9715 C163.7026,297.4035 163.6676,298.8495 163.4686,300.2645 C161.9216,311.2785 156.6516,315.8555 145.5436,315.8905 C144.1076,315.8955 142.6706,315.8965 141.2346,315.8905 C132.3066,315.8525 126.5056,311.3235 124.6086,302.5685 C123.8966,299.2845 123.4316,295.8745 123.4196,292.5195 C123.3266,264.8185 123.3106,237.1175 123.4376,209.4165 C123.4536,205.8785 123.9606,202.1955 125.0476,198.8405 C127.5836,191.0185 133.7136,186.6265 142.7136,186.5995 C160.4526,186.5495 178.2036,186.6615 195.9316,187.2575 C204.0446,187.5315 211.8956,189.8615 219.0976,193.8935 C230.7546,200.4195 236.3696,210.7465 237.5766,223.6945 C238.1786,230.1665 237.7616,236.6225 235.6546,242.8525 C232.1556,253.2015 225.1786,260.2825 215.1626,264.4625 C213.7476,265.0535 212.3106,265.5915 210.8866,266.1625 C210.7986,266.1965 210.7386,266.2975 210.2356,266.7775" id="Fill-11" fill="#FFFFFF"></path>
            <path d="M815.927705,98.2335406 L765.23754,98.2335406 L765.23754,47.4432739 C765.23754,36.9825711 756.773131,28.5006 746.3322,28.5006 C735.891269,28.5006 727.427705,36.9825711 727.427705,47.4432739 L727.427705,97.8831578 L676.73754,97.8831578 C666.296609,97.8831578 657.8322,106.363436 657.8322,116.825832 C657.8322,127.287381 666.296609,135.768506 676.73754,135.768506 L727.427705,135.768506 L727.427705,186.557926 C727.427705,197.020322 735.891269,205.5006 746.3322,205.5006 C756.773131,205.5006 765.23754,197.020322 765.23754,186.557926 L765.23754,136.118888 L815.927705,136.118888 C826.367791,136.118888 834.8322,127.637764 834.8322,117.176215 C834.8322,106.714665 826.367791,98.2335406 815.927705,98.2335406" id="Fill-13" fill="#E91157"></path>
            <path d="M862.333699,35.0734899 L837.131834,35.0734899 L837.131834,9.82279457 C837.131834,4.62093458 832.923908,0.4047 827.733232,0.4047 C822.541624,0.4047 818.333699,4.62093458 818.333699,9.82279457 L818.333699,34.8987867 L793.131834,34.8987867 C787.941158,34.8987867 783.7323,39.1159555 783.7323,44.3178155 C783.7323,49.5187412 787.941158,53.7349758 793.131834,53.7349758 L818.333699,53.7349758 L818.333699,78.9866054 C818.333699,84.1875312 822.541624,88.4047 827.733232,88.4047 C832.923908,88.4047 837.131834,84.1875312 837.131834,78.9866054 L837.131834,53.9087448 L862.333699,53.9087448 C867.524375,53.9087448 871.7323,49.6925103 871.7323,44.4915845 C871.7323,39.2906588 867.524375,35.0734899 862.333699,35.0734899" id="Fill-15" fill="#FBB600"></path>
        </g>
    </g>
</svg>