<svg width="180" height="71" viewBox="0 0 180 71" fill="none" xmlns="http://www.w3.org/2000/svg">
  <path fill-rule="evenodd" clip-rule="evenodd"
    d="M0 50.4928C0.301904 49.3065 0.481147 48.0716 0.927602 46.9426C2.55276 42.8343 5.66535 40.4971 9.96284 39.7052C12.8656 39.1702 15.7108 39.3888 18.4108 40.651C19.8456 41.3215 21.0104 42.323 21.6694 43.8152C22.4072 45.487 21.9482 47.1186 20.3889 48.067C19.7667 48.4456 19.0412 48.6624 18.3495 48.9164C17.9984 49.0454 17.7155 48.9259 17.4968 48.575C16.207 46.5049 13.9892 45.8959 11.7167 46.3748C9.43688 46.8553 8.17578 48.4038 7.74688 50.6574C7.19387 53.5633 8.50433 56.2412 10.9623 57.2287C13.2914 58.1643 16.4146 57.4347 17.6263 55.1048C17.7155 54.9334 17.954 54.7457 18.1361 54.7314C19.7504 54.6059 21.8969 56.3358 22.0919 57.9202C22.2538 59.2332 21.7181 60.3322 20.8903 61.2907C19.4326 62.9787 17.4917 63.7865 15.3513 64.1314C12.4741 64.595 9.63533 64.451 6.94277 63.2236C2.99034 61.4223 0.843143 58.2589 0.1493 54.0339C0.108413 53.7848 0.0501797 53.5385 0 53.2909V50.4928Z"
    fill="#394DAF" />
  <path fill-rule="evenodd" clip-rule="evenodd"
    d="M112.195 51.8147C112.194 47.6389 112.176 43.463 112.211 39.2874C112.217 38.5161 112.353 37.721 112.575 36.9805C113.23 34.7974 114.932 33.4983 117.205 33.3509C117.458 33.3343 117.713 33.3348 117.967 33.3348C124.517 33.3339 131.067 33.3329 137.617 33.3368C138.04 33.337 138.469 33.335 138.885 33.4031C141.483 33.8287 142.821 35.4002 142.814 38.0399C142.812 38.7345 142.784 39.4486 142.624 40.1198C142.215 41.8424 140.871 42.877 138.853 43.0899C138.117 43.1675 137.374 43.209 136.634 43.2111C132.565 43.2226 128.495 43.2284 124.425 43.2043C123.797 43.2005 123.54 43.3626 123.588 44.0226C123.64 44.7396 123.631 45.465 123.59 46.1832C123.557 46.754 123.785 46.9103 124.327 46.9066C127.124 46.8876 129.923 46.8637 132.72 46.9171C133.703 46.9359 134.712 47.0619 135.655 47.3295C137.155 47.7549 137.948 48.8898 138.1 50.413C138.178 51.1861 138.18 51.9925 138.05 52.7555C137.7 54.8061 136.063 56.0445 133.703 56.0699C130.736 56.1019 127.768 56.0794 124.8 56.0881C123.469 56.0922 123.61 55.9458 123.6 57.2713C123.595 58.0556 123.634 58.8417 123.589 59.6234C123.554 60.2346 123.765 60.4227 124.379 60.4196C128.872 60.3975 133.366 60.3971 137.86 60.4188C138.573 60.4225 139.299 60.5115 139.995 60.6656C141.746 61.053 142.776 62.1939 142.981 63.952C143.088 64.8631 143.066 65.8316 142.877 66.7264C142.414 68.9134 140.787 70.1679 138.392 70.1786C131.418 70.2094 124.444 70.2235 117.471 70.1739C114.293 70.1514 112.215 67.8683 112.2 64.5329C112.18 60.2937 112.195 56.0542 112.195 51.8147Z"
    fill="#394DAF" />
  <path fill-rule="evenodd" clip-rule="evenodd"
    d="M96.8277 69.1848C92.4565 69.1596 88.4539 68.0354 85.0529 65.1748C82.3336 62.8875 80.6052 59.9645 79.7962 56.5279C78.8458 52.4911 78.9759 48.4771 80.5689 44.6128C82.7365 39.3539 86.6904 36.1345 92.21 34.866C96.093 33.9733 99.9538 34.123 103.723 35.4746C105.714 36.1884 107.45 37.313 108.695 39.0681C111.09 42.4452 109.961 45.895 106.039 47.2383C105.839 47.3068 105.637 47.3688 105.435 47.433C104.229 47.8163 104.163 47.7828 103.43 46.7474C102.008 44.738 99.9969 43.8407 97.5959 43.799C95.0031 43.7542 92.8266 44.6546 91.2943 46.8397C88.8081 50.3864 89.6587 55.9939 93.042 58.3941C95.539 60.1655 99.3378 60.1948 101.851 58.4577C102.705 57.8677 103.379 57.1123 103.817 56.1711C104.023 55.7292 104.294 55.6117 104.772 55.6986C106.18 55.9557 107.449 56.5007 108.543 57.42C110.296 58.8942 110.616 61.2246 109.355 63.4856C107.975 65.9566 105.757 67.3649 103.149 68.2396C101.101 68.9265 98.9838 69.1852 96.8277 69.1848Z"
    fill="#394DAF" />
  <path fill-rule="evenodd" clip-rule="evenodd"
    d="M52.4229 52.0624C52.4227 48.9261 52.4128 45.7901 52.4277 42.654C52.4335 41.4375 52.5664 40.2344 53.2737 39.1873C54.1051 37.9565 55.3408 37.4339 56.7615 37.4266C62.1859 37.3981 67.6107 37.3938 73.035 37.4242C75.6613 37.439 77.0992 39.0745 76.8976 41.6901C76.7209 43.9861 75.6522 45.0975 73.3462 45.1403C69.7455 45.2064 66.1424 45.1708 62.5404 45.1783C61.5474 45.1803 61.5474 45.1799 61.5468 46.1924C61.5465 46.6374 61.5732 47.0843 61.5401 47.5268C61.5028 48.0338 61.7159 48.1897 62.2028 48.1862C64.47 48.1705 66.7374 48.1773 69.0047 48.1814C70.0065 48.1835 71.0156 48.2101 71.8664 48.8304C72.1995 49.0731 72.5235 49.3828 72.7323 49.7335C74.2381 52.2617 72.6133 55.3278 69.6926 55.4112C67.2577 55.4808 64.8196 55.4366 62.3827 55.4441C61.5507 55.4467 61.5496 55.4484 61.5472 56.3002C61.5453 56.9148 61.5792 57.5314 61.5375 58.143C61.4988 58.7074 61.7136 58.8747 62.2637 58.8713C65.3575 58.8515 68.4513 58.8383 71.5447 58.8744C72.679 58.8879 73.8317 58.9407 74.9398 59.1592C76.1703 59.4018 76.8274 60.3462 77.0069 61.5474C77.1056 62.2082 77.1093 62.9128 76.9961 63.5703C76.6486 65.5913 75.2799 66.5928 72.8758 66.6139C70.1426 66.6381 67.4087 66.6205 64.6752 66.6207C62.2809 66.6209 59.8865 66.6217 57.4921 66.6193C57.217 66.6188 56.9395 66.6188 56.6673 66.5854C53.7385 66.2259 52.4518 64.7329 52.4283 61.5978C52.4045 58.4193 52.4231 55.2409 52.4229 52.0624Z"
    fill="#394DAF" />
  <path fill-rule="evenodd" clip-rule="evenodd"
    d="M33.6662 47.7521C33.6662 48.5996 33.6644 49.4473 33.6673 50.2947C33.6683 50.5766 33.6634 50.8874 34.0704 50.8711C35.5904 50.8106 37.1156 50.7955 38.6276 50.6487C39.4883 50.5652 40.1851 50.0271 40.5144 49.2048C41.1835 47.5353 40.8762 45.0085 38.0507 44.7605C36.8094 44.6513 35.5545 44.7006 34.3066 44.6535C33.7957 44.6343 33.6427 44.8565 33.6582 45.3366C33.684 46.141 33.6652 46.9469 33.6662 47.7521ZM43.4003 55.0062C44.3013 56.1246 45.1864 57.2267 46.0751 58.3255C47.0471 59.5276 48.0022 60.7445 49.007 61.9184C49.394 62.3705 49.3511 62.7349 49.032 63.1576C48.1482 64.3285 46.9288 64.8984 45.5151 65.1006C43.0991 65.4461 41.209 64.549 39.7599 62.6296C38.3943 60.8209 37.0259 59.0142 35.6564 57.2083C35.32 56.7648 34.4871 56.5079 34.0376 56.7675C33.8935 56.8509 33.8096 57.1476 33.8061 57.3486C33.785 58.577 33.7983 59.8059 33.7925 61.0348C33.7912 61.3305 33.784 61.6291 33.7429 61.9213C33.4235 64.1957 32.3352 65.1409 30.0414 65.1481C29.7448 65.1491 29.4481 65.1493 29.1516 65.1481C27.3079 65.1403 26.11 64.205 25.7183 62.3971C25.5713 61.7189 25.4752 61.0148 25.4728 60.322C25.4536 54.6017 25.4503 48.8814 25.4765 43.1611C25.4798 42.4305 25.5845 41.67 25.8089 40.9772C26.3326 39.3619 27.5985 38.455 29.457 38.4494C33.1201 38.4391 36.7857 38.4622 40.4466 38.5853C42.1219 38.6419 43.7431 39.123 45.2304 39.9556C47.6375 41.3032 48.797 43.4358 49.0463 46.1095C49.1706 47.446 49.0845 48.7792 48.6494 50.0657C47.9268 52.2028 46.4861 53.665 44.4178 54.5282C44.1256 54.6502 43.8288 54.7613 43.5348 54.8792C43.5166 54.8862 43.5042 54.9071 43.4003 55.0062Z"
    fill="#394DAF" />
  <path fill-rule="evenodd" clip-rule="evenodd"
    d="M168.476 20.2017H158.009V9.7135C158.009 7.55335 156.261 5.80182 154.105 5.80182C151.949 5.80182 150.201 7.55335 150.201 9.7135V20.1294H139.733C137.577 20.1294 135.829 21.8806 135.829 24.0411C135.829 26.2014 137.577 27.9527 139.733 27.9527H150.201V38.4408C150.201 40.6013 151.949 42.3525 154.105 42.3525C156.261 42.3525 158.009 40.6013 158.009 38.4408V28.0251H168.476C170.632 28.0251 172.38 26.2737 172.38 24.1134C172.38 21.9531 170.632 20.2017 168.476 20.2017Z"
    fill="#E91157" />
  <path fill-rule="evenodd" clip-rule="evenodd"
    d="M178.059 7.15914H172.855V1.94485C172.855 0.870656 171.986 0 170.914 0C169.842 0 168.973 0.870656 168.973 1.94485V7.12306H163.769C162.697 7.12306 161.828 7.99391 161.828 9.0681C161.828 10.1421 162.697 11.0128 163.769 11.0128H168.973V16.2272C168.973 17.3012 169.842 18.1721 170.914 18.1721C171.986 18.1721 172.855 17.3012 172.855 16.2272V11.0486H178.059C179.131 11.0486 180 10.178 180 9.10398C180 8.02999 179.131 7.15914 178.059 7.15914Z"
    fill="#FBB600" />
</svg>